<svg version="1.1" xmlns="http://www.w3.org/2000/svg" style="display: block;" viewBox="0 0 2048 2048" width="777" height="777" preserveAspectRatio="none">
<path transform="translate(0,0)" fill="rgb(255,255,255)" d="M 0 1000.35 C 2.29185 990.625 2.89424 964.299 3.88123 952.474 C 5.99629 928.069 9.15817 903.767 13.3581 879.633 C 36.0921 747.75 84.8072 621.699 156.673 508.805 C 297.638 284.141 533.945 124.41 791.537 65.7613 C 1061.79 3.96993 1345.51 51.7401 1580.62 198.62 C 1793.71 332.322 1949.03 540.941 2016.03 783.415 C 2026.41 820.745 2034.45 858.69 2040.09 897.025 C 2042.69 915.039 2043.86 942.534 2048 959.104 L 2048 1129.56 C 2043.71 1146.41 2042.62 1173.04 2039.91 1191.51 C 2034.11 1229.74 2026.02 1267.59 2015.71 1304.86 C 1948.53 1548.38 1791.82 1757.53 1576.98 1890.41 C 1461.23 1962.67 1332.4 2011.42 1197.82 2033.9 C 1175.49 2037.74 1153.02 2040.8 1130.48 2043.05 C 1118.42 2044.14 1089.27 2045.68 1078.51 2048 L 970.342 2048 C 961.588 2045.99 951.79 2045.64 942.785 2044.92 C 502.385 2009.66 128.291 1703.06 25.8252 1268.36 C 16.4359 1228.11 9.43248 1187.34 4.85169 1146.26 C 2.98353 1128.75 3.61209 1104.03 0 1087.88 L 0 1000.35 z"/>
<path transform="translate(0,0)" fill="rgb(0,0,0)" d="M 1223.22 503.81 C 1204.97 503.141 1187.09 503.617 1168.25 503.647 C 1148.15 503.679 1118.8 506.76 1112.87 480.738 C 1111.85 476.281 1112.38 471.057 1112.31 466.517 C 1113.02 443.33 1111.9 420.022 1112.18 396.845 C 1112.54 388.286 1114.31 379.081 1121.07 373.211 C 1124.44 370.291 1129.07 366.746 1133.55 366.136 C 1144.68 364.616 1156.65 365.038 1167.87 365.042 L 1218.99 364.993 C 1250.86 364.644 1282.73 364.561 1314.6 364.743 C 1332.04 364.718 1349.5 364.532 1366.94 365.086 C 1373.35 365.29 1381.77 369.864 1386.06 374.483 C 1394.31 383.371 1393.64 398.409 1393.22 409.746 C 1392.41 431.276 1393.72 452.706 1393.06 474.203 C 1392.76 482.726 1390.33 490.512 1383.42 495.92 C 1370.77 505.813 1353.97 503.461 1338.93 503.692 C 1320.21 503.979 1301.25 502.991 1282.55 503.78 C 1282.41 510.498 1282.15 517.59 1282.28 524.276 C 1425.04 532.847 1541.67 585.004 1646.55 681.02 C 1658.53 668.422 1670.59 655.898 1682.73 643.448 C 1665.37 627.837 1635.83 605.882 1658.39 580.357 C 1663.62 574.416 1671.05 570.879 1678.96 570.57 C 1683.31 570.404 1691.57 571.518 1694.98 574.033 C 1706.27 582.373 1718.32 594.791 1728.57 604.601 L 1783.46 657.052 C 1791.44 664.801 1798.37 671.927 1798.77 683.494 C 1799.03 691.852 1795.81 699.943 1789.88 705.843 C 1765.93 729.668 1741.88 700.873 1725.82 684.695 C 1713 697.917 1700.3 711.256 1687.72 724.711 C 1785.79 835.906 1832.29 987.634 1822.97 1134.83 C 1812.3 1286.37 1741.68 1427.41 1626.72 1526.72 C 1514.26 1624.5 1367.95 1674.3 1219.19 1665.43 C 1064.98 1655.98 921.082 1584.77 820.018 1467.91 C 812.839 1459.69 805.894 1450.84 799.09 1442.29 L 780.242 1442.32 L 780.764 1382.6 L 814.229 1382.67 C 828.579 1384.26 834.63 1390.11 843.003 1401.04 C 861.03 1424.57 880.047 1446.99 901.855 1467.22 C 1002.58 1562.03 1137.33 1612.13 1275.53 1606.14 C 1411.12 1600.11 1538.73 1540.37 1630.21 1440.11 C 1814.59 1239.72 1808.06 927.779 1616.63 734.999 C 1611.36 729.686 1606.08 724.515 1600.56 719.454 C 1499.83 625.644 1365.49 576.495 1228 583.16 C 1075.74 590.864 934.772 665.841 843.271 787.792 C 831.806 802.977 821.243 818.822 811.635 835.245 C 808.12 841.386 804.222 848.567 801.049 854.837 C 783.913 888.697 783.992 896.428 744.341 896.19 C 745.384 879.441 743.54 854.079 744.076 835.349 C 754.993 812.185 769.963 788.35 784.655 767.383 C 852.536 670.59 948.622 597.094 1059.81 556.918 C 1112.33 537.927 1167.36 526.815 1223.13 523.944 L 1223.22 503.81 z"/>
<path transform="translate(0,0)" fill="rgb(255,255,255)" d="M 1172.07 424.259 C 1222.73 423.251 1283.47 423.268 1334.05 424.311 C 1334.25 430.528 1334.01 437.719 1333.94 444.017 L 1171.86 443.857 C 1171.71 437.393 1171.94 430.743 1172.07 424.259 z"/>
<path transform="translate(0,0)" fill="rgb(0,121,236)" d="M 1249.08 617.147 C 1257.61 616.501 1272.53 618.347 1281.83 618.807 C 1498.96 629.561 1678.48 791.057 1720.54 1001.56 C 1738.45 1092.94 1729.7 1187.54 1695.35 1274.1 C 1689.19 1289.59 1680.9 1309.89 1671.93 1323.82 C 1664.67 1335.08 1659.44 1337.77 1647.65 1340.1 C 1635.41 1340.52 1621.48 1336.8 1616.42 1324.43 C 1607.47 1302.57 1624.91 1279.11 1633.39 1259.2 C 1677.32 1157.94 1678.77 1043.28 1637.42 940.945 C 1593.1 830.817 1503.94 744.801 1392.29 704.458 C 1361.18 693.283 1333.39 686.526 1300.32 682.68 C 1288.99 678.943 1245.13 681.639 1237.64 676.591 C 1209.98 657.95 1218.74 624.836 1249.08 617.147 z"/>
<path transform="translate(0,0)" fill="rgb(0,121,236)" d="M 1245.61 982.394 C 1251.14 982.009 1265.95 983.607 1271.49 984.873 C 1334.66 999.316 1363.35 1053.68 1350.94 1115.16 C 1365.81 1124.83 1390.85 1137.32 1406.97 1146.12 L 1513.39 1204.4 C 1531.32 1214.16 1551.08 1224.21 1567.94 1235.18 C 1585.94 1248.51 1579.31 1284.09 1557.46 1289.44 C 1535.55 1294.8 1506.04 1273.8 1487.16 1263.1 C 1433.36 1231.93 1368.75 1201.3 1316.59 1169.14 C 1311.72 1172.39 1306.59 1175.9 1301.5 1178.79 C 1265.4 1199.23 1219.38 1196.68 1186.01 1171.77 C 1163.71 1154.82 1149.16 1129.6 1145.67 1101.8 C 1140.63 1063.98 1154.41 1026.79 1185.37 1004.04 C 1205.78 989.04 1221.24 985.348 1245.61 982.394 z"/>
<path transform="translate(0,0)" fill="rgb(255,255,255)" d="M 1243.49 1046.74 C 1266.09 1043.44 1287.09 1059.09 1290.4 1081.7 C 1293.7 1104.3 1278.06 1125.31 1255.45 1128.62 C 1232.84 1131.93 1211.83 1116.28 1208.52 1093.66 C 1205.22 1071.05 1220.87 1050.04 1243.49 1046.74 z"/>
<path transform="translate(0,0)" fill="rgb(0,121,236)" d="M 780.242 1442.32 C 758.682 1444.21 730.068 1442.84 707.921 1442.85 L 573.75 1442.88 L 461.281 1442.86 C 441.486 1442.85 421.153 1443.26 401.387 1442.27 C 392.071 1441.64 388.252 1440.42 381.045 1434.42 C 363.753 1420.03 372.809 1384.67 395.409 1382.71 C 414.278 1381.07 436.839 1381.96 456.543 1381.96 L 569.492 1382 L 726.024 1382 C 753.277 1382.01 787.63 1381.11 814.229 1382.67 L 780.764 1382.6 L 780.242 1442.32 z"/>
<path transform="translate(0,0)" fill="rgb(0,121,236)" d="M 525.073 1245.26 C 532.088 1244.45 539.836 1244.63 546.896 1244.71 C 607.425 1245.25 665.906 1244.83 726.608 1245.13 C 751.459 1245.26 767.869 1260.15 759.928 1287.7 C 757.593 1295.8 747.257 1303.07 739.281 1306.04 C 722.638 1308.19 676.962 1306.66 658.574 1306.84 C 618.111 1307.05 577.586 1306.65 537.137 1306.53 C 497.391 1306.42 487.999 1260.63 525.073 1245.26 z"/>
<path transform="translate(0,0)" fill="rgb(0,121,236)" d="M 326.293 1246.26 C 345.164 1244.54 367.327 1246.37 386.496 1245.92 C 404.022 1246.57 423.389 1244.56 440.748 1246.03 C 478.067 1249.2 483.093 1299.84 442.719 1307.94 C 404.949 1308.68 365.402 1308.21 327.608 1307.69 C 291.199 1307.19 283.584 1252.34 326.293 1246.26 z"/>
<path transform="translate(0,0)" fill="rgb(0,121,236)" d="M 504.837 972.427 C 534.664 971.538 564.563 972.937 594.725 972.127 C 612.652 971.007 641.166 972.155 645.887 994.481 C 650.606 1016.8 638.731 1030.07 618.252 1034.04 C 587.554 1035.09 556.527 1034.13 525.789 1034.5 C 514.113 1034.64 496.426 1035.13 486.505 1028.6 C 472.368 1019.29 470.061 996.919 480.496 983.979 C 487.165 975.709 494.883 973.681 504.837 972.427 z"/>
<path transform="translate(0,0)" fill="rgb(0,121,236)" d="M 432.914 1109.44 C 467.962 1108.42 511.315 1109.17 546.453 1109.6 C 577.003 1109.96 592.01 1161.42 546.108 1170.94 C 516.028 1171.63 485.442 1170.81 455.316 1171.2 C 443.336 1171.35 426.77 1172.18 416.491 1165.6 C 409.446 1161.06 404.612 1153.78 403.146 1145.53 C 399.625 1125.47 414.021 1111.96 432.914 1109.44 z"/>
<path transform="translate(0,0)" fill="rgb(0,121,236)" d="M 190.794 1382.21 C 206.605 1380.67 308.077 1379.59 318.396 1383.9 C 326.404 1387.26 332.665 1393.78 335.692 1401.92 C 338.746 1409.81 338.35 1418.63 334.602 1426.22 C 329.811 1435.77 322.319 1439.56 312.786 1442.46 C 297.643 1444.13 271.902 1442.75 255.898 1443.13 C 235.995 1442.93 215.969 1443.61 196.091 1442.69 C 158.391 1440.96 153.005 1392.65 190.794 1382.21 z"/>
<path transform="translate(0,0)" fill="rgb(0,121,236)" d="M 744.076 835.349 C 743.54 854.079 745.384 879.441 744.341 896.19 C 705.378 898.071 664.851 895.677 625.741 896.733 C 593.325 897.609 579.824 887.322 584.299 853.651 C 600.192 830.881 618.899 835.735 643.702 835.769 L 704.594 835.913 C 716.414 835.943 731.188 836.388 742.659 835.469 L 744.076 835.349 z"/>
<path transform="translate(0,0)" fill="rgb(0,121,236)" d="M 630.221 1108.19 C 651.178 1105.92 674.992 1109.3 696.151 1108.01 C 711.474 1106.96 735.294 1109.38 740.669 1127.1 C 746.945 1147.79 737.841 1163.89 718.184 1169.99 C 701.12 1171.35 638.82 1171.86 625.569 1166.81 C 618.396 1164.07 612.017 1158.93 609.139 1151.66 C 605.926 1143.53 606.312 1131.72 610.18 1123.87 C 614.239 1115.64 621.925 1111.22 630.221 1108.19 z"/>
<path transform="translate(0,0)" fill="rgb(0,121,236)" d="M 704.479 972.43 C 714.973 972.048 724.31 970.972 734.393 975.759 C 749.913 983.007 755.087 1002.05 747.445 1016.91 C 742.136 1027.24 733.867 1031.3 723.405 1034.45 C 712.563 1034.98 703.38 1035.6 693.452 1029.91 C 686.058 1025.73 680.803 1018.59 679.007 1010.29 C 674.792 991.404 685.919 976.21 704.479 972.43 z"/>
</svg>